<svg width="28" height="28" xmlns="http://www.w3.org/2000/svg">
    <circle cx="14" cy="14" r="13" fill="#25d366"/>
    <path d="M21 19c-1.7 1.6-3.7 2.3-5.9 2.3h-.1c-1.2 0-2.5-.3-3.7-.7l-4.4 1.4 1.4-4.3c-.7-1.2-1-2.4-1-3.8C7.6 10.7 10.7 7.6 14.4 7.6c1.8 0 3.5.7 4.8 2s2 3 2 4.8c0 1.6-.6 3.1-1.2 4z" fill="#fff"/>
    <path d="M17.6 17.1c-.2-.1-1.1-.5-1.2-.6-.2-.1-.3-.1-.4.1-.1.2-.5.6-.7.7-.1.1-.2.1-.4.1-.1-.1-.8-.3-1.5-1-.5-.5-.9-1-.9-1.2-.1-.2 0-.3.1-.4.1 0 .1-.2.2-.3 0-.1.1-.1.1-.2s0-.2 0-.2 0-.9-.6-1.5c-.2-.2-.3-.2-.4-.2h-.2c-.1 0-.2 0-.3.2-.1.2-.5.5-.5 1.1 0 .6.4 1.2.8 1.7.7.9 1.5 1.3 1.7 1.4.2.1.4.1.7.1.2 0 .4 0 .7-.1.3-.1.7-.7.8-.8.1-.1.1-.1.2-.1.1 0 1.1.6 1.3.7.2.1.3.1.3 0 0-.1.1-.1.1-.2s0-.1-.1-.2z" fill="#25d366"/>
</svg>